<?xml version="1.0" encoding="UTF-8"?>
<svg version="1.1" xmlns="http://www.w3.org/2000/svg" width="435" height="435">
<path d="M0 0 C143.55 0 287.1 0 435 0 C435 143.55 435 287.1 435 435 C291.45 435 147.9 435 0 435 C0 291.45 0 147.9 0 0 Z " fill="#FD0000" transform="translate(0,0)"/>
<path d="M0 0 C5.20170023 -0.39578154 9.09386464 0.94045601 13.75 3.0625 C14.45592285 3.38049561 15.1618457 3.69849121 15.88916016 4.02612305 C26.16390535 8.78974033 39.77886158 16.91395752 44 28 C44.3359375 30 44.3359375 30 44.375 32 C44.40335938 32.66 44.43171875 33.32 44.4609375 34 C43.77421608 36.97967262 42.38055654 38.1381796 40 40 C37.5390625 40.65234375 37.5390625 40.65234375 34.625 40.9375 C11.42029448 43.96530697 -11.38468201 51.12999718 -34 57 C-30.04779966 58.70511445 -26.10593769 60.33910091 -22.0625 61.8125 C-15.8131774 64.29889207 -9.42670964 68.00601272 -6 74 C-6.30436075 77.78898075 -7.72708404 81.28486059 -8.9375 84.875 C-12.5855751 96.59906746 -13.2859868 108.80540617 -14 121 C-2.65271502 118.75105965 8.69032632 116.48292048 20.01953125 114.14453125 C20.78019897 113.98754257 21.5408667 113.83055389 22.32458496 113.66880798 C26.09945457 112.88918596 29.87390592 112.10758647 33.64794922 111.32397461 C35.05045298 111.03367813 36.45295937 110.74339435 37.85546875 110.453125 C39.08934326 110.19692383 40.32321777 109.94072266 41.59448242 109.67675781 C56.15945143 106.78235003 72.81629685 105.07599724 86 113 C87.134375 113.598125 88.26875 114.19625 89.4375 114.8125 C93.60036564 118.36616579 96.52512238 122.05665477 97.4140625 127.56640625 C97.57445798 132.45846841 97.25913439 136.114109 94 140 C91.70848735 141.14575633 90.38277763 141.14168703 87.83374023 141.17358398 C86.5286853 141.19393959 86.5286853 141.19393959 85.19726562 141.21470642 C84.24400391 141.22506424 83.29074219 141.23542206 82.30859375 141.24609375 C80.24731103 141.27777262 78.18603186 141.30968386 76.12475586 141.34179688 C75.03419891 141.35718506 73.94364197 141.37257324 72.82003784 141.38842773 C55.0108945 141.6467944 37.22565377 142.08631971 19.4375 143 C18.61788788 143.04188446 17.79827576 143.08376892 16.9538269 143.12692261 C5.96604803 143.69467427 -5.01722965 144.34332167 -16 145 C-15.99476318 145.93231445 -15.98952637 146.86462891 -15.98413086 147.82519531 C-15.86489287 171.23709354 -16.20960273 194.60129773 -17 218 C-13.05275064 217.32634227 -9.10582843 216.65080067 -5.15917969 215.97363281 C-3.168784 215.63250403 -1.17814456 215.29279848 0.8125 214.953125 C6.33176612 214.00537223 11.83458655 213.05456133 17.30859375 211.87109375 C33.62986493 208.5650074 46.54574426 210.83208524 60.484375 219.5546875 C62.46419654 220.93163105 64.22641004 222.36863188 66 224 C66.6084375 224.54398438 67.216875 225.08796875 67.84375 225.6484375 C70.17084784 227.98611306 71.82853177 229.74804705 72.28515625 233.08203125 C72.03520185 236.36801716 71.21295768 238.70028178 69.3125 241.375 C61.76323523 246.67988876 53.21035925 245.3885568 44.5703125 244 C34.19415961 242.50536141 23.77282084 242.69557878 13.3125 242.75 C12.27530823 242.75276947 11.23811646 242.75553894 10.16949463 242.75839233 C-6.28641007 242.80989528 -22.62702492 243.21205126 -39 245 C-40.41490723 245.15275391 -40.41490723 245.15275391 -41.85839844 245.30859375 C-59.01997382 247.25481371 -75.62090636 251.13407965 -91.8359375 257.08203125 C-95.97140743 258.28182808 -99.26747643 258.93988621 -103.16015625 256.828125 C-103.78792969 256.30734375 -104.41570312 255.7865625 -105.0625 255.25 C-105.69285156 254.73953125 -106.32320312 254.2290625 -106.97265625 253.703125 C-107.64167969 253.14109375 -108.31070313 252.5790625 -109 252 C-110.21042969 251.11248047 -110.21042969 251.11248047 -111.4453125 250.20703125 C-114.44720578 247.6136525 -116.60799306 244.6984096 -118.8125 241.4375 C-119.21919922 240.86064453 -119.62589844 240.28378906 -120.04492188 239.68945312 C-123 235.38348214 -123 235.38348214 -123 232 C-105.84784246 229.58818721 -88.69448867 227.18399482 -71.51809692 224.95007324 C-69.52870959 224.69123539 -67.5396207 224.43010706 -65.55053711 224.16894531 C-64.34792236 224.01393555 -63.14530762 223.85892578 -61.90625 223.69921875 C-60.85759766 223.56346436 -59.80894531 223.42770996 -58.72851562 223.2878418 C-56 223 -56 223 -52 223 C-52 198.58 -52 174.16 -52 149 C-56.29 149.99 -60.58 150.98 -65 152 C-68.62386742 152.65466737 -72.24134425 153.28427829 -75.875 153.875 C-85.06256694 155.4060065 -94.1393813 157.25875659 -103.19873047 159.42529297 C-112.30553078 161.52204768 -119.15651599 162.14640229 -127.50390625 157.5625 C-138.8505096 150.4597749 -138.8505096 150.4597749 -142 145 C-142.04966928 143.00061685 -142.0543472 140.99926146 -142 139 C-135.35476186 138.05825237 -128.70889636 137.12103871 -122.0625 136.1875 C-121.07871368 136.04927826 -120.09492737 135.91105652 -119.08132935 135.76864624 C-106.74069479 134.03837468 -94.40253889 132.39163804 -82.02099609 130.97998047 C-75.13024123 130.17945997 -68.30131661 129.14466659 -61.47436523 127.91333008 C-58.22689059 127.33195577 -55.31799725 127 -52 127 C-52.36008626 121.86192026 -52.73303686 116.72497801 -53.11694336 111.58862305 C-53.24531539 109.8483086 -53.37042255 108.10774962 -53.49194336 106.36694336 C-54.32660666 85.29447004 -54.32660666 85.29447004 -62.79296875 66.63671875 C-64 65 -64 65 -64 63 C-65.09570312 63.144375 -66.19140625 63.28875 -67.3203125 63.4375 C-78.24124916 64.75665799 -89.07265591 65.19938341 -100.0625 65.1875 C-100.73178528 65.1882251 -101.40107056 65.1889502 -102.09063721 65.18969727 C-113.43508369 65.18830544 -113.43508369 65.18830544 -117 64 C-116.67 63.01 -116.34 62.02 -116 61 C-115.43120117 60.91661377 -114.86240234 60.83322754 -114.27636719 60.74731445 C-79.85438436 55.41590652 -39.62433653 41.88444269 -12.63671875 19.21484375 C-11 18 -11 18 -9 18 C-8.58234375 17.14728516 -8.58234375 17.14728516 -8.15625 16.27734375 C-6.99939956 13.99881738 -5.7627404 11.78384515 -4.5 9.5625 C-2.75349322 6.44042594 -1.19965248 3.3808388 0 0 Z " fill="#FEFAFA" transform="translate(288,91)"/>
<path d="M0 0 C11.82871493 3.34984759 24.9875474 9.58464179 32.875 19.3125 C34.39324938 22.93942906 34.79833723 26.17400647 34 30 C31.59553572 33.60669643 29.52739789 35.60725689 26.0625 38.1875 C21.60875543 41.76862795 19.56481964 47.0135424 17 52 C7.91266063 68.55778728 -2.43188308 84.35825172 -13 100 C-10.45268357 102.59837622 -7.84300591 105.02946432 -5.0625 107.375 C-3.70281183 108.57711683 -2.34833538 109.78516317 -1 111 C-0.19369141 111.70962891 -0.19369141 111.70962891 0.62890625 112.43359375 C3.59755157 115.41915443 4.33217302 117.8168136 4.4375 121.875 C4.35132301 124.94695606 3.88476373 127.3820333 2.99177551 130.34248352 C1.50121154 136.25959934 1.73245469 142.21215667 1.76049805 148.27807617 C1.75740614 150.29905447 1.75430798 152.32003277 1.75097525 154.34101069 C1.74915757 156.50080279 1.75207977 158.66054496 1.75617027 160.82033348 C1.76382311 165.34026826 1.75307527 169.86004654 1.7389679 174.37995911 C1.70135369 187.22865418 1.68300889 200.07727762 1.69458008 212.92602539 C1.70082187 220.03235494 1.68908828 227.13843021 1.65813476 234.24469739 C1.63961189 238.72551535 1.64267177 243.20560564 1.66230237 247.68641031 C1.66924907 250.49074201 1.65510113 253.29469068 1.63535309 256.09894943 C1.62800855 257.99171051 1.64511514 259.88451889 1.66334534 261.77720642 C1.53146491 274.10711578 -2.64310175 284.21090314 -10 294 C-10.48726563 294.72832031 -10.97453125 295.45664062 -11.4765625 296.20703125 C-13 298 -13 298 -16.25 298.625 C-21.40055233 297.76657461 -23.76848047 296.06453346 -27 292 C-37.42143379 274.69057992 -39.94724462 260.35848637 -37.1875 240.5 C-37.00398108 239.15390196 -36.82055067 237.80779185 -36.63720703 236.46166992 C-35.22387144 226.18721495 -33.73207611 215.89861175 -31.50927734 205.76220703 C-29.63432111 196.66300081 -29.29931905 187.50545238 -28.875 178.25 C-28.83297455 177.37903687 -28.7909491 176.50807373 -28.74765015 175.61071777 C-28.16769427 163.49078958 -27.81139442 151.38406684 -27.8125 139.25 C-27.81169434 137.96125977 -27.81088867 136.67251953 -27.81005859 135.34472656 C-27.75796275 128.59186437 -27.75796275 128.59186437 -29 122 C-30.02438455 122.99636187 -31.04422713 123.99739287 -32.0625 125 C-32.63097656 125.556875 -33.19945313 126.11375 -33.78515625 126.6875 C-35.67941959 128.66528465 -37.47214021 130.68260198 -39.26171875 132.75390625 C-51.22430998 146.50316991 -64.62470054 158.14773983 -79.3125 168.875 C-80.07804199 169.43533936 -80.84358398 169.99567871 -81.63232422 170.57299805 C-91.94503412 178 -91.94503412 178 -98 178 C-97.46028757 174.26840082 -96.60645252 172.05101521 -94.2265625 169.13671875 C-93.65518555 168.42394775 -93.08380859 167.71117676 -92.49511719 166.97680664 C-91.87797852 166.22133545 -91.26083984 165.46586426 -90.625 164.6875 C-84.62521289 157.14986953 -79.00715506 149.48461558 -73.65820312 141.47558594 C-72.06251399 139.09332919 -70.4547604 136.71950323 -68.8445282 134.34706116 C-49.92106134 106.44441522 -34.68337365 78.3126459 -22.97045898 46.58935547 C-22.3218216 44.85867669 -21.64539733 43.1381674 -20.94213867 41.42895508 C-19.47551402 37.64780745 -18.69494625 33.77664959 -17.875 29.8125 C-17.69396729 28.94061035 -17.51293457 28.0687207 -17.32641602 27.17041016 C-15.99997021 20.23987154 -15.68711802 13.60083519 -16.06005859 6.56176758 C-16.15234375 4.4296875 -16.15234375 4.4296875 -16 1 C-11.0085901 -2.3276066 -5.73293933 -0.95031389 0 0 Z " fill="#FEFAFA" transform="translate(138,75)"/>
<path d="M0 0 C0.66 0 1.32 0 2 0 C2 24.42 2 48.84 2 74 C-17.5708099 77.45367234 -17.5708099 77.45367234 -25.26953125 78.38671875 C-26.12383224 78.49345413 -26.97813324 78.60018951 -27.85832214 78.7101593 C-29.62282105 78.92969274 -31.38757633 79.14717588 -33.15258789 79.36254883 C-35.8556642 79.6927732 -38.55773119 80.03050636 -41.25976562 80.36914062 C-42.99213408 80.58376495 -44.72455408 80.79797379 -46.45703125 81.01171875 C-47.25800735 81.11167648 -48.05898346 81.21163422 -48.88423157 81.31462097 C-52.29383096 81.72807948 -55.55931231 82 -59 82 C-58.67 81.01 -58.34 80.02 -58 79 C-52.72 79 -47.44 79 -42 79 C-42 78.34 -42 77.68 -42 77 C-40.92878906 76.93941406 -39.85757813 76.87882812 -38.75390625 76.81640625 C-37.35675609 76.73201463 -35.95962143 76.64736594 -34.5625 76.5625 C-33.85544922 76.52318359 -33.14839844 76.48386719 -32.41992188 76.44335938 C-28.91309581 76.52375562 -28.91309581 76.52375562 -26 75 C-23.69104731 74.78982984 -21.37726031 74.63160059 -19.0625 74.5 C-14.36692004 74.39353799 -14.36692004 74.39353799 -10 73 C-6.37 73 -2.74 73 1 73 C0.67 48.91 0.34 24.82 0 0 Z " fill="#DE1919" transform="translate(234,240)"/>
<path d="M0 0 C0 0.66 0 1.32 0 2 C-0.54901474 2.01030746 -1.09802948 2.02061493 -1.66368103 2.03123474 C-7.35721281 2.13907947 -13.05057921 2.25369449 -18.74389648 2.37231445 C-20.87114007 2.41573423 -22.9984201 2.45740393 -25.12573242 2.49731445 C-28.17638151 2.55484707 -31.22684589 2.61858967 -34.27734375 2.68359375 C-35.23462875 2.70030624 -36.19191376 2.71701874 -37.1782074 2.73423767 C-38.05904495 2.75418289 -38.93988251 2.77412811 -39.84741211 2.79467773 C-40.62684677 2.81022202 -41.40628143 2.8257663 -42.20933533 2.84178162 C-44.02293353 2.80889119 -44.02293353 2.80889119 -45 4 C-46.41225046 4.0928726 -47.82908934 4.11746772 -49.24438477 4.11352539 C-50.14524307 4.11344986 -51.04610138 4.11337433 -51.97425842 4.11329651 C-52.95341721 4.10813522 -53.93257599 4.10297394 -54.94140625 4.09765625 C-55.93881332 4.0962413 -56.9362204 4.09482635 -57.96385193 4.09336853 C-61.16343124 4.08775114 -64.36294169 4.07519571 -67.5625 4.0625 C-69.72591045 4.05748724 -71.88932199 4.05292395 -74.05273438 4.04882812 C-79.36851325 4.03777607 -84.68425171 4.02102104 -90 4 C-90 4.66 -90 5.32 -90 6 C-96.27 6 -102.54 6 -109 6 C-109 10.95 -109 15.9 -109 21 C-109.33 21 -109.66 21 -110 21 C-110 15.72 -110 10.44 -110 5 C-98.17735122 3.49781337 -86.46408281 2.48238293 -74.5625 1.9375 C-73.71412567 1.89675354 -72.86575134 1.85600708 -71.9916687 1.81402588 C-48.03389803 0.67292968 -23.98656962 0 0 0 Z " fill="#E42222" transform="translate(382,231)"/>
<path d="M0 0 C0.66 0 1.32 0 2 0 C2.02684679 2.64590014 2.04676357 5.29153096 2.0625 7.9375 C2.07087891 8.69224609 2.07925781 9.44699219 2.08789062 10.22460938 C2.09652441 12.14994313 2.05224333 14.07535581 2 16 C1.67 16.33 1.34 16.66 1 17 C-0.29732963 23.53065719 -0.17323556 30.09162999 -0.20532227 36.72827148 C-0.21522186 37.99725784 -0.22512146 39.2662442 -0.23532104 40.57368469 C-0.2622242 44.03594992 -0.28331219 47.49822858 -0.30332303 50.96053958 C-0.3252732 54.58537632 -0.35261748 58.21017236 -0.37937927 61.8349762 C-0.42918457 68.69125202 -0.47416823 75.54755057 -0.51740164 82.40387064 C-0.56687833 90.21285926 -0.62175759 98.02180702 -0.67708123 105.83075607 C-0.79071442 121.887133 -0.89759369 137.94354746 -1 154 C-1.33 154 -1.66 154 -2 154 C-2.04677128 136.66674498 -2.08201395 119.33350973 -2.10362434 102.00020599 C-2.11392621 93.95161323 -2.12796567 85.90305974 -2.15087891 77.85449219 C-2.17084618 70.83736917 -2.18372436 63.82027459 -2.18817699 56.80312395 C-2.19077872 53.08941151 -2.19687114 49.37578042 -2.21146011 45.66209412 C-2.22763427 41.5110212 -2.22797755 37.36008873 -2.22705078 33.20898438 C-2.23424133 31.98474762 -2.24143188 30.76051086 -2.24884033 29.49917603 C-2.23380998 23.27512336 -1.758231 17.9675445 0 12 C0.23775761 8.64733165 0.23775761 8.64733165 0.125 5.5 C0.10695312 4.4584375 0.08890625 3.416875 0.0703125 2.34375 C0.04710937 1.5703125 0.02390625 0.796875 0 0 Z " fill="#D62626" transform="translate(141,190)"/>
<path d="M0 0 C3.14775255 0.00543099 6.29536658 -0.00002052 9.44311523 -0.00634766 C11.47241242 -0.00568788 13.50170952 -0.00440879 15.53100586 -0.00244141 C16.45817917 -0.00446564 17.38535248 -0.00648987 18.34062195 -0.00857544 C23.62611313 0.01037776 28.69473754 0.36269418 33.92553711 1.13037109 C33.92553711 1.46037109 33.92553711 1.79037109 33.92553711 2.13037109 C33.10090469 2.14067856 32.27627228 2.15098602 31.426651 2.16160583 C23.67148027 2.25940989 15.91639258 2.36189943 8.16135502 2.46971035 C4.17400495 2.52497582 0.18664759 2.57840146 -3.80078125 2.62768555 C-7.6457789 2.67527585 -11.49068471 2.72761645 -15.3355732 2.78331184 C-16.80562631 2.80375966 -18.27570463 2.82246866 -19.74580193 2.83944511 C-21.79807565 2.86343574 -23.85017436 2.89349699 -25.90234375 2.92504883 C-27.07260605 2.94059311 -28.24286835 2.95613739 -29.44859314 2.97215271 C-31.99971549 2.83452436 -31.99971549 2.83452436 -33.07446289 4.13037109 C-34.70919171 4.21737452 -36.34760344 4.23738172 -37.98461914 4.22802734 C-38.97397461 4.22480469 -39.96333008 4.22158203 -40.98266602 4.21826172 C-42.02358398 4.20988281 -43.06450195 4.20150391 -44.13696289 4.19287109 C-45.18174805 4.18835938 -46.2265332 4.18384766 -47.30297852 4.17919922 C-49.89352949 4.16737022 -52.48396848 4.15088799 -55.07446289 4.13037109 C-55.07446289 3.80037109 -55.07446289 3.47037109 -55.07446289 3.13037109 C-47.24553656 1.9250207 -39.45478616 0.9802812 -31.54321289 0.57177734 C-30.33208076 0.50913193 -30.33208076 0.50913193 -29.09648132 0.44522095 C-19.40091161 -0.00860569 -9.7043434 -0.01994726 0 0 Z " fill="#DD2727" transform="translate(298.074462890625,332.86962890625)"/>
<path d="M0 0 C0.33 0 0.66 0 1 0 C1.90256457 3.85584187 2.12880478 7.43443521 2.1328125 11.390625 C2.13571289 13.27479126 2.13571289 13.27479126 2.13867188 15.19702148 C2.13455945 16.54801575 2.12999286 17.8990087 2.125 19.25 C2.12411377 19.93119904 2.12322754 20.61239807 2.12231445 21.3142395 C2.10214946 34.55779484 1.67342381 47.77331154 1 61 C0.67 61 0.34 61 0 61 C-0.33 42.85 -0.66 24.7 -1 6 C-2.98 7.98 -4.96 9.96 -7 12 C-7.99 11.67 -8.98 11.34 -10 11 C-8.52116808 9.35386588 -7.04192523 7.70810092 -5.5625 6.0625 C-4.73878906 5.14597656 -3.91507812 4.22945312 -3.06640625 3.28515625 C-1 1 -1 1 0 0 Z " fill="#DC1A19" transform="translate(109,196)"/>
<path d="M0 0 C1.55074219 -0.0309375 1.55074219 -0.0309375 3.1328125 -0.0625 C9.22537247 -0.09358449 13.47159527 0.41411913 18.875 3.25 C20.19776056 3.62308631 21.52732077 3.98046415 22.875 4.25 C22.875 4.91 22.875 5.57 22.875 6.25 C24.195 6.25 25.515 6.25 26.875 6.25 C28.89123639 8.03277744 30.24844618 10.08126157 31.875 12.25 C31.545 12.91 31.215 13.57 30.875 14.25 C30.276875 13.528125 29.67875 12.80625 29.0625 12.0625 C22.65290059 5.57901471 13.0839573 3.12403879 4.29394531 3.00976562 C-5.72008586 2.97763848 -15.11927279 3.51523299 -24.921875 5.59375 C-28.125 6.25 -28.125 6.25 -31.125 6.25 C-31.125 5.59 -31.125 4.93 -31.125 4.25 C-29.990625 4.105625 -28.85625 3.96125 -27.6875 3.8125 C-24.31722799 3.63828522 -24.31722799 3.63828522 -23.125 2.25 C-20.28527465 1.92648699 -17.44426263 1.7369571 -14.59375 1.53125 C-1.20434598 0.00587486 -1.20434598 0.00587486 0 0 Z " fill="#E0201F" transform="translate(350.125,196.75)"/>
<path d="M0 0 C0 0.33 0 0.66 0 1 C-3.96 1 -7.92 1 -12 1 C-12 1.66 -12 2.32 -12 3 C-18.27 3 -24.54 3 -31 3 C-31 7.95 -31 12.9 -31 18 C-31.33 18 -31.66 18 -32 18 C-32 12.72 -32 7.44 -32 2 C-21.1927249 0.57093883 -10.89594354 -0.28548324 0 0 Z " fill="#E53434" transform="translate(304,234)"/>
<path d="M0 0 C0 0.33 0 0.66 0 1 C-0.78246094 1.06058594 -1.56492187 1.12117188 -2.37109375 1.18359375 C-3.88896484 1.30927734 -3.88896484 1.30927734 -5.4375 1.4375 C-6.44683594 1.51871094 -7.45617187 1.59992188 -8.49609375 1.68359375 C-10.93640779 1.73211468 -10.93640779 1.73211468 -12 3 C-13.63472882 3.08700342 -15.27314055 3.10701063 -16.91015625 3.09765625 C-17.89951172 3.09443359 -18.88886719 3.09121094 -19.90820312 3.08789062 C-20.94912109 3.07951172 -21.99003906 3.07113281 -23.0625 3.0625 C-24.10728516 3.05798828 -25.15207031 3.05347656 -26.22851562 3.04882812 C-28.8190666 3.03699913 -31.40950559 3.02051689 -34 3 C-34 2.67 -34 2.34 -34 2 C-22.5896331 0.08974426 -11.55030268 -0.22379488 0 0 Z " fill="#E62B2B" transform="translate(277,334)"/>
<path d="M0 0 C0.33 0 0.66 0 1 0 C1.66433182 9.34809779 2.1598655 18.62122392 2 28 C0.27192682 28.33895656 -1.45751974 28.67091525 -3.1875 29 C-4.15042969 29.185625 -5.11335937 29.37125 -6.10546875 29.5625 C-8.7934206 29.96877612 -11.28771019 30.07933572 -14 30 C-10.72698081 27.03090402 -8.61934238 26.65645206 -4.25 26.8125 C-2.77273437 26.85310547 -2.77273437 26.85310547 -1.265625 26.89453125 C-0.51796875 26.92933594 0.2296875 26.96414062 1 27 C0.835 25.88625 0.67 24.7725 0.5 23.625 C-0.39511815 15.79586804 -0.07637758 7.86689054 0 0 Z " fill="#DC1C1C" transform="translate(234,190)"/>
<path d="M0 0 C-2.95440816 2.95440816 -6.51983952 2.94488889 -10.5 3.5625 C-15.90687712 4.25140411 -15.90687712 4.25140411 -21 6 C-23.6723621 6.13415472 -26.32250488 6.04318541 -29 6 C-26.72427193 3.72427193 -25.75984859 3.54859573 -22.67578125 2.9296875 C-21.81146484 2.75566406 -20.94714844 2.58164062 -20.05664062 2.40234375 C-19.15107422 2.22832031 -18.24550781 2.05429687 -17.3125 1.875 C-16.42626953 1.69324219 -15.54003906 1.51148438 -14.62695312 1.32421875 C-9.65601452 0.34548472 -5.06442351 -0.20784228 0 0 Z " fill="#E43232" transform="translate(242,337)"/>
<path d="M0 0 C0.33 0.66 0.66 1.32 1 2 C0.71125 2.70125 0.4225 3.4025 0.125 4.125 C-1.03457388 7.08835547 -1.38715447 9.80296751 -1.71875 12.953125 C-2.14585348 16.06148923 -3.11008031 18.99652103 -4 22 C-4.36270588 23.99488234 -4.70640699 25.9937811 -5 28 C-5.33 28 -5.66 28 -6 28 C-6.20160136 22.06619999 -5.55584985 16.93626908 -4.125 11.1875 C-3.95097656 10.43791016 -3.77695312 9.68832031 -3.59765625 8.91601562 C-2.7673582 5.47489149 -1.98106244 2.97159366 0 0 Z " fill="#DC1C1C" transform="translate(281,169)"/>
<path d="M0 0 C0 0.99 0 1.98 0 3 C-3.71769452 5.47846301 -6.58068272 5.26100633 -10.875 5.1875 C-11.93654297 5.1865332 -11.93654297 5.1865332 -13.01953125 5.18554688 C-16.79733916 5.15388927 -20.3276513 4.90008547 -24 4 C-24 3.67 -24 3.34 -24 3 C-22.85402344 3.03480469 -21.70804687 3.06960938 -20.52734375 3.10546875 C-18.99741061 3.13362703 -17.46746146 3.16092499 -15.9375 3.1875 C-15.18533203 3.21263672 -14.43316406 3.23777344 -13.65820312 3.26367188 C-8.33368144 3.33282151 -4.75653566 2.40669334 0 0 Z " fill="#E12A2A" transform="translate(356,332)"/>
<path d="M0 0 C-0.78246094 0.27714844 -1.56492188 0.55429687 -2.37109375 0.83984375 C-3.88896484 1.38318359 -3.88896484 1.38318359 -5.4375 1.9375 C-6.44683594 2.29714844 -7.45617187 2.65679687 -8.49609375 3.02734375 C-10.90313745 3.76877639 -10.90313745 3.76877639 -12 5 C-14.33297433 5.04092937 -16.66705225 5.04241723 -19 5 C-19 4.34 -19 3.68 -19 3 C-18.16855469 2.79503906 -17.33710938 2.59007812 -16.48046875 2.37890625 C-15.39378906 2.10949219 -14.30710938 1.84007812 -13.1875 1.5625 C-11.56908203 1.16224609 -11.56908203 1.16224609 -9.91796875 0.75390625 C-3.18011364 -0.98693182 -3.18011364 -0.98693182 0 0 Z " fill="#E11E1E" transform="translate(206,346)"/>
<path d="M0 0 C0 0.33 0 0.66 0 1 C-2.56149628 1.50567729 -5.12399465 2.00470132 -7.6875 2.5 C-8.7693457 2.71462891 -8.7693457 2.71462891 -9.87304688 2.93359375 C-13.63841359 3.65571887 -17.14473813 4.1824976 -21 4 C-17.8836454 1.27136087 -15.7353924 0.57155834 -11.625 0.3125 C-10.18060547 0.21582031 -10.18060547 0.21582031 -8.70703125 0.1171875 C-5.80033011 -0.00864372 -2.90888189 -0.07861843 0 0 Z " fill="#DF2322" transform="translate(304,206)"/>
<path d="M0 0 C0.33 1.32 0.66 2.64 1 4 C0.34 4 -0.32 4 -1 4 C-1.061875 4.721875 -1.12375 5.44375 -1.1875 6.1875 C-2.24456647 9.84657625 -4.20550071 11.49211602 -7 14 C-5.53967505 8.68972746 -3.01679014 4.53669968 0 0 Z " fill="#E22020" transform="translate(156,124)"/>
<path d="M0 0 C1.98 0 3.96 0 6 0 C6 0.66 6 1.32 6 2 C6.7425 2.0825 7.485 2.165 8.25 2.25 C11.51221354 3.1396946 12.80954878 4.48503749 15 7 C9.80355921 5.40109514 4.93387858 3.25861997 0 1 C0 0.67 0 0.34 0 0 Z " fill="#E22121" transform="translate(333,303)"/>
<path d="M0 0 C2.9983016 0.57710672 5.86133617 1.58545194 8.75 2.5625 C9.94882812 2.96662109 9.94882812 2.96662109 11.171875 3.37890625 C11.77515625 3.58386719 12.3784375 3.78882813 13 4 C13 4.66 13 5.32 13 6 C11.03964825 5.55037804 9.08175691 5.09001752 7.125 4.625 C6.03445313 4.36976563 4.94390625 4.11453125 3.8203125 3.8515625 C1 3 1 3 -1 1 C-0.67 0.67 -0.34 0.34 0 0 Z " fill="#D82727" transform="translate(254,147)"/>
<path d="M0 0 C1.90389849 2.85584773 2.69462177 4.9311762 3.625 8.1875 C4.01558594 9.53908203 4.01558594 9.53908203 4.4140625 10.91796875 C4.60742188 11.60503906 4.80078125 12.29210937 5 13 C1.59243919 10.72829279 1.1304589 9.82616857 0 6 C-0.125 2.6875 -0.125 2.6875 0 0 Z " fill="#E12121" transform="translate(101,345)"/>
<path d="M0 0 C2.64 0 5.28 0 8 0 C7.67 0.66 7.34 1.32 7 2 C4.35139573 2.59355614 1.70802678 2.74209269 -1 3 C-0.67 2.01 -0.34 1.02 0 0 Z " fill="#E51E1D" transform="translate(208,315)"/>
</svg>
